ISO-10303-21;
HEADER;
/* Generated by software containing ST-Developer
 * from STEP Tools, Inc. (www.steptools.com) 
 */

FILE_DESCRIPTION(
/* description */ ('FreeCAD Model'),
/* implementation_level */ '2;1');

FILE_NAME(
/* name */ 'mount-v3.step',
/* time_stamp */ '2025-07-09T16:04:02+03:00',
/* author */ (''),
/* organization */ (''),
/* preprocessor_version */ 'ST-DEVELOPER v20.1',
/* originating_system */ 'Autodesk Translation Framework v14.10.0.0',
/* authorisation */ '');

FILE_SCHEMA (('AUTOMOTIVE_DESIGN { 1 0 10303 214 3 1 1 }'));
ENDSEC;

DATA;
#10=MECHANICAL_DESIGN_GEOMETRIC_PRESENTATION_REPRESENTATION('',(#13),#963);
#11=SHAPE_REPRESENTATION_RELATIONSHIP('SRR','None',#969,#12);
#12=ADVANCED_BREP_SHAPE_REPRESENTATION('',(#14),#962);
#13=STYLED_ITEM('',(#983),#14);
#14=MANIFOLD_SOLID_BREP('mount-v2',#568);
#15=CYLINDRICAL_SURFACE('',#579,1.5);
#16=CYLINDRICAL_SURFACE('',#583,3.5);
#17=CYLINDRICAL_SURFACE('',#585,1.5);
#18=CYLINDRICAL_SURFACE('',#599,3.);
#19=CYLINDRICAL_SURFACE('',#608,3.05000000000001);
#20=CYLINDRICAL_SURFACE('',#611,3.05);
#21=CYLINDRICAL_SURFACE('',#612,1.7);
#22=CYLINDRICAL_SURFACE('',#613,1.7);
#23=CYLINDRICAL_SURFACE('',#614,1.1);
#24=CYLINDRICAL_SURFACE('',#619,1.1);
#25=CYLINDRICAL_SURFACE('',#626,1.6);
#26=CYLINDRICAL_SURFACE('',#627,2.9);
#27=CYLINDRICAL_SURFACE('',#628,1.6);
#28=CYLINDRICAL_SURFACE('',#629,2.9);
#29=FACE_BOUND('',#73,.T.);
#30=FACE_BOUND('',#74,.T.);
#31=FACE_BOUND('',#81,.T.);
#32=FACE_BOUND('',#82,.T.);
#33=FACE_BOUND('',#85,.T.);
#34=FACE_BOUND('',#86,.T.);
#35=FACE_BOUND('',#87,.T.);
#36=FACE_BOUND('',#88,.T.);
#37=FACE_BOUND('',#93,.T.);
#38=FACE_BOUND('',#108,.T.);
#39=FACE_BOUND('',#110,.T.);
#40=FACE_OUTER_BOUND('',#72,.T.);
#41=FACE_OUTER_BOUND('',#75,.T.);
#42=FACE_OUTER_BOUND('',#76,.T.);
#43=FACE_OUTER_BOUND('',#77,.T.);
#44=FACE_OUTER_BOUND('',#78,.T.);
#45=FACE_OUTER_BOUND('',#79,.T.);
#46=FACE_OUTER_BOUND('',#80,.T.);
#47=FACE_OUTER_BOUND('',#83,.T.);
#48=FACE_OUTER_BOUND('',#84,.T.);
#49=FACE_OUTER_BOUND('',#89,.T.);
#50=FACE_OUTER_BOUND('',#90,.T.);
#51=FACE_OUTER_BOUND('',#91,.T.);
#52=FACE_OUTER_BOUND('',#92,.T.);
#53=FACE_OUTER_BOUND('',#94,.T.);
#54=FACE_OUTER_BOUND('',#95,.T.);
#55=FACE_OUTER_BOUND('',#96,.T.);
#56=FACE_OUTER_BOUND('',#97,.T.);
#57=FACE_OUTER_BOUND('',#98,.T.);
#58=FACE_OUTER_BOUND('',#99,.T.);
#59=FACE_OUTER_BOUND('',#100,.T.);
#60=FACE_OUTER_BOUND('',#101,.T.);
#61=FACE_OUTER_BOUND('',#102,.T.);
#62=FACE_OUTER_BOUND('',#103,.T.);
#63=FACE_OUTER_BOUND('',#104,.T.);
#64=FACE_OUTER_BOUND('',#105,.T.);
#65=FACE_OUTER_BOUND('',#106,.T.);
#66=FACE_OUTER_BOUND('',#107,.T.);
#67=FACE_OUTER_BOUND('',#109,.T.);
#68=FACE_OUTER_BOUND('',#111,.T.);
#69=FACE_OUTER_BOUND('',#112,.T.);
#70=FACE_OUTER_BOUND('',#113,.T.);
#71=FACE_OUTER_BOUND('',#114,.T.);
#72=EDGE_LOOP('',(#366,#367,#368,#369,#370,#371,#372,#373,#374,#375,#376,
#377));
#73=EDGE_LOOP('',(#378));
#74=EDGE_LOOP('',(#379,#380,#381,#382));
#75=EDGE_LOOP('',(#383,#384,#385,#386));
#76=EDGE_LOOP('',(#387,#388,#389,#390));
#77=EDGE_LOOP('',(#391,#392,#393,#394,#395,#396));
#78=EDGE_LOOP('',(#397,#398,#399,#400));
#79=EDGE_LOOP('',(#401,#402,#403,#404));
#80=EDGE_LOOP('',(#405,#406,#407,#408,#409,#410));
#81=EDGE_LOOP('',(#411));
#82=EDGE_LOOP('',(#412));
#83=EDGE_LOOP('',(#413,#414,#415,#416,#417,#418,#419,#420));
#84=EDGE_LOOP('',(#421,#422,#423,#424,#425,#426));
#85=EDGE_LOOP('',(#427));
#86=EDGE_LOOP('',(#428));
#87=EDGE_LOOP('',(#429));
#88=EDGE_LOOP('',(#430));
#89=EDGE_LOOP('',(#431,#432,#433,#434));
#90=EDGE_LOOP('',(#435,#436,#437,#438));
#91=EDGE_LOOP('',(#439,#440,#441,#442));
#92=EDGE_LOOP('',(#443,#444,#445,#446,#447,#448));
#93=EDGE_LOOP('',(#449,#450,#451,#452));
#94=EDGE_LOOP('',(#453,#454,#455,#456));
#95=EDGE_LOOP('',(#457));
#96=EDGE_LOOP('',(#458));
#97=EDGE_LOOP('',(#459,#460,#461,#462));
#98=EDGE_LOOP('',(#463,#464,#465,#466,#467));
#99=EDGE_LOOP('',(#468,#469,#470,#471));
#100=EDGE_LOOP('',(#472,#473,#474,#475,#476));
#101=EDGE_LOOP('',(#477,#478,#479,#480));
#102=EDGE_LOOP('',(#481,#482,#483,#484));
#103=EDGE_LOOP('',(#485,#486,#487,#488));
#104=EDGE_LOOP('',(#489));
#105=EDGE_LOOP('',(#490));
#106=EDGE_LOOP('',(#491,#492,#493,#494));
#107=EDGE_LOOP('',(#495));
#108=EDGE_LOOP('',(#496));
#109=EDGE_LOOP('',(#497,#498,#499,#500));
#110=EDGE_LOOP('',(#501));
#111=EDGE_LOOP('',(#502,#503,#504,#505));
#112=EDGE_LOOP('',(#506,#507,#508,#509));
#113=EDGE_LOOP('',(#510,#511,#512,#513));
#114=EDGE_LOOP('',(#514,#515,#516,#517));
#115=LINE('',#806,#163);
#116=LINE('',#810,#164);
#117=LINE('',#812,#165);
#118=LINE('',#816,#166);
#119=LINE('',#818,#167);
#120=LINE('',#822,#168);
#121=LINE('',#825,#169);
#122=LINE('',#830,#170);
#123=LINE('',#834,#171);
#124=LINE('',#840,#172);
#125=LINE('',#841,#173);
#126=LINE('',#844,#174);
#127=LINE('',#845,#175);
#128=LINE('',#848,#176);
#129=LINE('',#850,#177);
#130=LINE('',#852,#178);
#131=LINE('',#853,#179);
#132=LINE('',#857,#180);
#133=LINE('',#861,#181);
#134=LINE('',#864,#182);
#135=LINE('',#866,#183);
#136=LINE('',#868,#184);
#137=LINE('',#869,#185);
#138=LINE('',#876,#186);
#139=LINE('',#877,#187);
#140=LINE('',#879,#188);
#141=LINE('',#881,#189);
#142=LINE('',#882,#190);
#143=LINE('',#884,#191);
#144=LINE('',#896,#192);
#145=LINE('',#897,#193);
#146=LINE('',#900,#194);
#147=LINE('',#901,#195);
#148=LINE('',#904,#196);
#149=LINE('',#907,#197);
#150=LINE('',#911,#198);
#151=LINE('',#921,#199);
#152=LINE('',#922,#200);
#153=LINE('',#925,#201);
#154=LINE('',#926,#202);
#155=LINE('',#928,#203);
#156=LINE('',#931,#204);
#157=LINE('',#933,#205);
#158=LINE('',#936,#206);
#159=LINE('',#943,#207);
#160=LINE('',#954,#208);
#161=LINE('',#956,#209);
#162=LINE('',#958,#210);
#163=VECTOR('',#636,10.);
#164=VECTOR('',#639,10.);
#165=VECTOR('',#640,10.);
#166=VECTOR('',#643,10.);
#167=VECTOR('',#644,10.);
#168=VECTOR('',#647,10.);
#169=VECTOR('',#650,10.);
#170=VECTOR('',#653,10.);
#171=VECTOR('',#656,10.);
#172=VECTOR('',#663,10.);
#173=VECTOR('',#664,10.);
#174=VECTOR('',#667,10.);
#175=VECTOR('',#668,10.);
#176=VECTOR('',#671,10.);
#177=VECTOR('',#672,10.);
#178=VECTOR('',#673,10.);
#179=VECTOR('',#674,10.);
#180=VECTOR('',#679,10.);
#181=VECTOR('',#684,10.);
#182=VECTOR('',#687,10.);
#183=VECTOR('',#688,10.);
#184=VECTOR('',#689,10.);
#185=VECTOR('',#690,10.);
#186=VECTOR('',#697,10.);
#187=VECTOR('',#698,10.);
#188=VECTOR('',#699,10.);
#189=VECTOR('',#700,10.);
#190=VECTOR('',#701,10.);
#191=VECTOR('',#704,10.);
#192=VECTOR('',#717,10.);
#193=VECTOR('',#718,10.);
#194=VECTOR('',#721,10.);
#195=VECTOR('',#722,10.);
#196=VECTOR('',#727,10.);
#197=VECTOR('',#728,10.);
#198=VECTOR('',#731,10.);
#199=VECTOR('',#746,10.);
#200=VECTOR('',#747,10.);
#201=VECTOR('',#750,10.);
#202=VECTOR('',#751,10.);
#203=VECTOR('',#754,10.);
#204=VECTOR('',#759,1.35);
#205=VECTOR('',#762,1.35);
#206=VECTOR('',#765,1.1);
#207=VECTOR('',#776,1.1);
#208=VECTOR('',#791,1.6);
#209=VECTOR('',#794,2.9);
#210=VECTOR('',#797,1.6);
#211=CIRCLE('',#571,1.5);
#212=CIRCLE('',#572,3.5);
#213=CIRCLE('',#573,2.9);
#214=CIRCLE('',#574,3.);
#215=CIRCLE('',#575,1.5);
#216=CIRCLE('',#576,2.9);
#217=CIRCLE('',#577,3.05);
#218=CIRCLE('',#578,3.05000000000001);
#219=CIRCLE('',#580,1.5);
#220=CIRCLE('',#584,3.5);
#221=CIRCLE('',#586,1.5);
#222=CIRCLE('',#588,1.7);
#223=CIRCLE('',#589,1.7);
#224=CIRCLE('',#592,3.);
#225=CIRCLE('',#593,1.1);
#226=CIRCLE('',#594,1.6);
#227=CIRCLE('',#595,1.6);
#228=CIRCLE('',#596,1.1);
#229=CIRCLE('',#601,3.05000000000001);
#230=CIRCLE('',#602,3.05);
#231=CIRCLE('',#605,1.7);
#232=CIRCLE('',#607,1.7);
#233=CIRCLE('',#615,1.1);
#234=CIRCLE('',#618,1.1);
#235=CIRCLE('',#621,2.9);
#236=CIRCLE('',#622,1.6);
#237=CIRCLE('',#624,2.9);
#238=CIRCLE('',#625,1.6);
#239=VERTEX_POINT('',#802);
#240=VERTEX_POINT('',#803);
#241=VERTEX_POINT('',#805);
#242=VERTEX_POINT('',#807);
#243=VERTEX_POINT('',#809);
#244=VERTEX_POINT('',#811);
#245=VERTEX_POINT('',#813);
#246=VERTEX_POINT('',#815);
#247=VERTEX_POINT('',#817);
#248=VERTEX_POINT('',#819);
#249=VERTEX_POINT('',#821);
#250=VERTEX_POINT('',#823);
#251=VERTEX_POINT('',#826);
#252=VERTEX_POINT('',#828);
#253=VERTEX_POINT('',#829);
#254=VERTEX_POINT('',#831);
#255=VERTEX_POINT('',#833);
#256=VERTEX_POINT('',#837);
#257=VERTEX_POINT('',#838);
#258=VERTEX_POINT('',#843);
#259=VERTEX_POINT('',#847);
#260=VERTEX_POINT('',#849);
#261=VERTEX_POINT('',#851);
#262=VERTEX_POINT('',#855);
#263=VERTEX_POINT('',#859);
#264=VERTEX_POINT('',#863);
#265=VERTEX_POINT('',#865);
#266=VERTEX_POINT('',#867);
#267=VERTEX_POINT('',#870);
#268=VERTEX_POINT('',#872);
#269=VERTEX_POINT('',#875);
#270=VERTEX_POINT('',#878);
#271=VERTEX_POINT('',#880);
#272=VERTEX_POINT('',#886);
#273=VERTEX_POINT('',#888);
#274=VERTEX_POINT('',#890);
#275=VERTEX_POINT('',#892);
#276=VERTEX_POINT('',#895);
#277=VERTEX_POINT('',#899);
#278=VERTEX_POINT('',#905);
#279=VERTEX_POINT('',#906);
#280=VERTEX_POINT('',#908);
#281=VERTEX_POINT('',#910);
#282=VERTEX_POINT('',#915);
#283=VERTEX_POINT('',#918);
#284=VERTEX_POINT('',#924);
#285=VERTEX_POINT('',#935);
#286=VERTEX_POINT('',#940);
#287=VERTEX_POINT('',#945);
#288=VERTEX_POINT('',#947);
#289=VERTEX_POINT('',#951);
#290=EDGE_CURVE('',#239,#240,#211,.T.);
#291=EDGE_CURVE('',#240,#241,#115,.T.);
#292=EDGE_CURVE('',#241,#242,#212,.T.);
#293=EDGE_CURVE('',#242,#243,#116,.T.);
#294=EDGE_CURVE('',#243,#244,#117,.T.);
#295=EDGE_CURVE('',#244,#245,#213,.T.);
#296=EDGE_CURVE('',#245,#246,#118,.T.);
#297=EDGE_CURVE('',#246,#247,#119,.T.);
#298=EDGE_CURVE('',#247,#248,#214,.T.);
#299=EDGE_CURVE('',#248,#249,#120,.T.);
#300=EDGE_CURVE('',#249,#250,#215,.T.);
#301=EDGE_CURVE('',#250,#239,#121,.T.);
#302=EDGE_CURVE('',#251,#251,#216,.T.);
#303=EDGE_CURVE('',#252,#253,#122,.T.);
#304=EDGE_CURVE('',#253,#254,#217,.T.);
#305=EDGE_CURVE('',#254,#255,#123,.T.);
#306=EDGE_CURVE('',#255,#252,#218,.T.);
#307=EDGE_CURVE('',#256,#257,#219,.T.);
#308=EDGE_CURVE('',#257,#240,#124,.T.);
#309=EDGE_CURVE('',#239,#256,#125,.T.);
#310=EDGE_CURVE('',#258,#250,#126,.T.);
#311=EDGE_CURVE('',#256,#258,#127,.T.);
#312=EDGE_CURVE('',#257,#259,#128,.T.);
#313=EDGE_CURVE('',#260,#259,#129,.T.);
#314=EDGE_CURVE('',#261,#260,#130,.T.);
#315=EDGE_CURVE('',#261,#241,#131,.T.);
#316=EDGE_CURVE('',#261,#262,#220,.T.);
#317=EDGE_CURVE('',#262,#242,#132,.T.);
#318=EDGE_CURVE('',#263,#258,#221,.T.);
#319=EDGE_CURVE('',#249,#263,#133,.T.);
#320=EDGE_CURVE('',#248,#264,#134,.T.);
#321=EDGE_CURVE('',#265,#264,#135,.T.);
#322=EDGE_CURVE('',#266,#265,#136,.T.);
#323=EDGE_CURVE('',#263,#266,#137,.T.);
#324=EDGE_CURVE('',#267,#267,#222,.F.);
#325=EDGE_CURVE('',#268,#268,#223,.F.);
#326=EDGE_CURVE('',#269,#262,#138,.T.);
#327=EDGE_CURVE('',#269,#247,#139,.T.);
#328=EDGE_CURVE('',#246,#270,#140,.T.);
#329=EDGE_CURVE('',#270,#271,#141,.T.);
#330=EDGE_CURVE('',#271,#243,#142,.T.);
#331=EDGE_CURVE('',#260,#265,#143,.T.);
#332=EDGE_CURVE('',#264,#269,#224,.T.);
#333=EDGE_CURVE('',#272,#272,#225,.T.);
#334=EDGE_CURVE('',#273,#273,#226,.T.);
#335=EDGE_CURVE('',#274,#274,#227,.T.);
#336=EDGE_CURVE('',#275,#275,#228,.T.);
#337=EDGE_CURVE('',#271,#276,#144,.T.);
#338=EDGE_CURVE('',#276,#244,#145,.T.);
#339=EDGE_CURVE('',#277,#245,#146,.T.);
#340=EDGE_CURVE('',#277,#270,#147,.T.);
#341=EDGE_CURVE('',#266,#259,#148,.T.);
#342=EDGE_CURVE('',#278,#279,#149,.T.);
#343=EDGE_CURVE('',#279,#280,#229,.T.);
#344=EDGE_CURVE('',#280,#281,#150,.T.);
#345=EDGE_CURVE('',#281,#278,#230,.T.);
#346=EDGE_CURVE('',#282,#282,#231,.T.);
#347=EDGE_CURVE('',#283,#283,#232,.T.);
#348=EDGE_CURVE('',#252,#279,#151,.T.);
#349=EDGE_CURVE('',#255,#280,#152,.T.);
#350=EDGE_CURVE('',#284,#254,#153,.T.);
#351=EDGE_CURVE('',#284,#281,#154,.T.);
#352=EDGE_CURVE('',#253,#278,#155,.T.);
#353=EDGE_CURVE('',#268,#282,#156,.T.);
#354=EDGE_CURVE('',#267,#283,#157,.T.);
#355=EDGE_CURVE('',#272,#285,#158,.T.);
#356=EDGE_CURVE('',#285,#285,#233,.T.);
#357=EDGE_CURVE('',#286,#286,#234,.T.);
#358=EDGE_CURVE('',#275,#286,#159,.T.);
#359=EDGE_CURVE('',#287,#287,#235,.T.);
#360=EDGE_CURVE('',#288,#288,#236,.T.);
#361=EDGE_CURVE('',#276,#277,#237,.T.);
#362=EDGE_CURVE('',#289,#289,#238,.T.);
#363=EDGE_CURVE('',#274,#288,#160,.T.);
#364=EDGE_CURVE('',#251,#287,#161,.T.);
#365=EDGE_CURVE('',#273,#289,#162,.T.);
#366=ORIENTED_EDGE('',*,*,#290,.T.);
#367=ORIENTED_EDGE('',*,*,#291,.T.);
#368=ORIENTED_EDGE('',*,*,#292,.T.);
#369=ORIENTED_EDGE('',*,*,#293,.T.);
#370=ORIENTED_EDGE('',*,*,#294,.T.);
#371=ORIENTED_EDGE('',*,*,#295,.T.);
#372=ORIENTED_EDGE('',*,*,#296,.T.);
#373=ORIENTED_EDGE('',*,*,#297,.T.);
#374=ORIENTED_EDGE('',*,*,#298,.T.);
#375=ORIENTED_EDGE('',*,*,#299,.T.);
#376=ORIENTED_EDGE('',*,*,#300,.T.);
#377=ORIENTED_EDGE('',*,*,#301,.T.);
#378=ORIENTED_EDGE('',*,*,#302,.T.);
#379=ORIENTED_EDGE('',*,*,#303,.T.);
#380=ORIENTED_EDGE('',*,*,#304,.T.);
#381=ORIENTED_EDGE('',*,*,#305,.T.);
#382=ORIENTED_EDGE('',*,*,#306,.T.);
#383=ORIENTED_EDGE('',*,*,#307,.T.);
#384=ORIENTED_EDGE('',*,*,#308,.T.);
#385=ORIENTED_EDGE('',*,*,#290,.F.);
#386=ORIENTED_EDGE('',*,*,#309,.T.);
#387=ORIENTED_EDGE('',*,*,#309,.F.);
#388=ORIENTED_EDGE('',*,*,#301,.F.);
#389=ORIENTED_EDGE('',*,*,#310,.F.);
#390=ORIENTED_EDGE('',*,*,#311,.F.);
#391=ORIENTED_EDGE('',*,*,#308,.F.);
#392=ORIENTED_EDGE('',*,*,#312,.T.);
#393=ORIENTED_EDGE('',*,*,#313,.F.);
#394=ORIENTED_EDGE('',*,*,#314,.F.);
#395=ORIENTED_EDGE('',*,*,#315,.T.);
#396=ORIENTED_EDGE('',*,*,#291,.F.);
#397=ORIENTED_EDGE('',*,*,#315,.F.);
#398=ORIENTED_EDGE('',*,*,#316,.T.);
#399=ORIENTED_EDGE('',*,*,#317,.T.);
#400=ORIENTED_EDGE('',*,*,#292,.F.);
#401=ORIENTED_EDGE('',*,*,#318,.T.);
#402=ORIENTED_EDGE('',*,*,#310,.T.);
#403=ORIENTED_EDGE('',*,*,#300,.F.);
#404=ORIENTED_EDGE('',*,*,#319,.T.);
#405=ORIENTED_EDGE('',*,*,#319,.F.);
#406=ORIENTED_EDGE('',*,*,#299,.F.);
#407=ORIENTED_EDGE('',*,*,#320,.T.);
#408=ORIENTED_EDGE('',*,*,#321,.F.);
#409=ORIENTED_EDGE('',*,*,#322,.F.);
#410=ORIENTED_EDGE('',*,*,#323,.F.);
#411=ORIENTED_EDGE('',*,*,#324,.F.);
#412=ORIENTED_EDGE('',*,*,#325,.F.);
#413=ORIENTED_EDGE('',*,*,#317,.F.);
#414=ORIENTED_EDGE('',*,*,#326,.F.);
#415=ORIENTED_EDGE('',*,*,#327,.T.);
#416=ORIENTED_EDGE('',*,*,#297,.F.);
#417=ORIENTED_EDGE('',*,*,#328,.T.);
#418=ORIENTED_EDGE('',*,*,#329,.T.);
#419=ORIENTED_EDGE('',*,*,#330,.T.);
#420=ORIENTED_EDGE('',*,*,#293,.F.);
#421=ORIENTED_EDGE('',*,*,#316,.F.);
#422=ORIENTED_EDGE('',*,*,#314,.T.);
#423=ORIENTED_EDGE('',*,*,#331,.T.);
#424=ORIENTED_EDGE('',*,*,#321,.T.);
#425=ORIENTED_EDGE('',*,*,#332,.T.);
#426=ORIENTED_EDGE('',*,*,#326,.T.);
#427=ORIENTED_EDGE('',*,*,#333,.T.);
#428=ORIENTED_EDGE('',*,*,#334,.T.);
#429=ORIENTED_EDGE('',*,*,#335,.T.);
#430=ORIENTED_EDGE('',*,*,#336,.T.);
#431=ORIENTED_EDGE('',*,*,#330,.F.);
#432=ORIENTED_EDGE('',*,*,#337,.T.);
#433=ORIENTED_EDGE('',*,*,#338,.T.);
#434=ORIENTED_EDGE('',*,*,#294,.F.);
#435=ORIENTED_EDGE('',*,*,#339,.F.);
#436=ORIENTED_EDGE('',*,*,#340,.T.);
#437=ORIENTED_EDGE('',*,*,#328,.F.);
#438=ORIENTED_EDGE('',*,*,#296,.F.);
#439=ORIENTED_EDGE('',*,*,#332,.F.);
#440=ORIENTED_EDGE('',*,*,#320,.F.);
#441=ORIENTED_EDGE('',*,*,#298,.F.);
#442=ORIENTED_EDGE('',*,*,#327,.F.);
#443=ORIENTED_EDGE('',*,*,#307,.F.);
#444=ORIENTED_EDGE('',*,*,#311,.T.);
#445=ORIENTED_EDGE('',*,*,#318,.F.);
#446=ORIENTED_EDGE('',*,*,#323,.T.);
#447=ORIENTED_EDGE('',*,*,#341,.T.);
#448=ORIENTED_EDGE('',*,*,#312,.F.);
#449=ORIENTED_EDGE('',*,*,#342,.T.);
#450=ORIENTED_EDGE('',*,*,#343,.T.);
#451=ORIENTED_EDGE('',*,*,#344,.T.);
#452=ORIENTED_EDGE('',*,*,#345,.T.);
#453=ORIENTED_EDGE('',*,*,#322,.T.);
#454=ORIENTED_EDGE('',*,*,#331,.F.);
#455=ORIENTED_EDGE('',*,*,#313,.T.);
#456=ORIENTED_EDGE('',*,*,#341,.F.);
#457=ORIENTED_EDGE('',*,*,#346,.F.);
#458=ORIENTED_EDGE('',*,*,#347,.F.);
#459=ORIENTED_EDGE('',*,*,#343,.F.);
#460=ORIENTED_EDGE('',*,*,#348,.F.);
#461=ORIENTED_EDGE('',*,*,#306,.F.);
#462=ORIENTED_EDGE('',*,*,#349,.T.);
#463=ORIENTED_EDGE('',*,*,#344,.F.);
#464=ORIENTED_EDGE('',*,*,#349,.F.);
#465=ORIENTED_EDGE('',*,*,#305,.F.);
#466=ORIENTED_EDGE('',*,*,#350,.F.);
#467=ORIENTED_EDGE('',*,*,#351,.T.);
#468=ORIENTED_EDGE('',*,*,#342,.F.);
#469=ORIENTED_EDGE('',*,*,#352,.F.);
#470=ORIENTED_EDGE('',*,*,#303,.F.);
#471=ORIENTED_EDGE('',*,*,#348,.T.);
#472=ORIENTED_EDGE('',*,*,#352,.T.);
#473=ORIENTED_EDGE('',*,*,#345,.F.);
#474=ORIENTED_EDGE('',*,*,#351,.F.);
#475=ORIENTED_EDGE('',*,*,#350,.T.);
#476=ORIENTED_EDGE('',*,*,#304,.F.);
#477=ORIENTED_EDGE('',*,*,#325,.T.);
#478=ORIENTED_EDGE('',*,*,#353,.T.);
#479=ORIENTED_EDGE('',*,*,#346,.T.);
#480=ORIENTED_EDGE('',*,*,#353,.F.);
#481=ORIENTED_EDGE('',*,*,#324,.T.);
#482=ORIENTED_EDGE('',*,*,#354,.T.);
#483=ORIENTED_EDGE('',*,*,#347,.T.);
#484=ORIENTED_EDGE('',*,*,#354,.F.);
#485=ORIENTED_EDGE('',*,*,#333,.F.);
#486=ORIENTED_EDGE('',*,*,#355,.T.);
#487=ORIENTED_EDGE('',*,*,#356,.T.);
#488=ORIENTED_EDGE('',*,*,#355,.F.);
#489=ORIENTED_EDGE('',*,*,#356,.F.);
#490=ORIENTED_EDGE('',*,*,#357,.F.);
#491=ORIENTED_EDGE('',*,*,#336,.F.);
#492=ORIENTED_EDGE('',*,*,#358,.T.);
#493=ORIENTED_EDGE('',*,*,#357,.T.);
#494=ORIENTED_EDGE('',*,*,#358,.F.);
#495=ORIENTED_EDGE('',*,*,#359,.F.);
#496=ORIENTED_EDGE('',*,*,#360,.T.);
#497=ORIENTED_EDGE('',*,*,#361,.F.);
#498=ORIENTED_EDGE('',*,*,#337,.F.);
#499=ORIENTED_EDGE('',*,*,#329,.F.);
#500=ORIENTED_EDGE('',*,*,#340,.F.);
#501=ORIENTED_EDGE('',*,*,#362,.T.);
#502=ORIENTED_EDGE('',*,*,#335,.F.);
#503=ORIENTED_EDGE('',*,*,#363,.T.);
#504=ORIENTED_EDGE('',*,*,#360,.F.);
#505=ORIENTED_EDGE('',*,*,#363,.F.);
#506=ORIENTED_EDGE('',*,*,#302,.F.);
#507=ORIENTED_EDGE('',*,*,#364,.T.);
#508=ORIENTED_EDGE('',*,*,#359,.T.);
#509=ORIENTED_EDGE('',*,*,#364,.F.);
#510=ORIENTED_EDGE('',*,*,#334,.F.);
#511=ORIENTED_EDGE('',*,*,#365,.T.);
#512=ORIENTED_EDGE('',*,*,#362,.F.);
#513=ORIENTED_EDGE('',*,*,#365,.F.);
#514=ORIENTED_EDGE('',*,*,#339,.T.);
#515=ORIENTED_EDGE('',*,*,#295,.F.);
#516=ORIENTED_EDGE('',*,*,#338,.F.);
#517=ORIENTED_EDGE('',*,*,#361,.T.);
#518=PLANE('',#570);
#519=PLANE('',#581);
#520=PLANE('',#582);
#521=PLANE('',#587);
#522=PLANE('',#590);
#523=PLANE('',#591);
#524=PLANE('',#597);
#525=PLANE('',#598);
#526=PLANE('',#600);
#527=PLANE('',#603);
#528=PLANE('',#604);
#529=PLANE('',#606);
#530=PLANE('',#609);
#531=PLANE('',#610);
#532=PLANE('',#616);
#533=PLANE('',#617);
#534=PLANE('',#620);
#535=PLANE('',#623);
#536=ADVANCED_FACE('',(#40,#29,#30),#518,.T.);
#537=ADVANCED_FACE('',(#41),#15,.T.);
#538=ADVANCED_FACE('',(#42),#519,.F.);
#539=ADVANCED_FACE('',(#43),#520,.T.);
#540=ADVANCED_FACE('',(#44),#16,.T.);
#541=ADVANCED_FACE('',(#45),#17,.T.);
#542=ADVANCED_FACE('',(#46,#31,#32),#521,.T.);
#543=ADVANCED_FACE('',(#47),#522,.T.);
#544=ADVANCED_FACE('',(#48,#33,#34,#35,#36),#523,.F.);
#545=ADVANCED_FACE('',(#49),#524,.F.);
#546=ADVANCED_FACE('',(#50),#525,.F.);
#547=ADVANCED_FACE('',(#51),#18,.T.);
#548=ADVANCED_FACE('',(#52,#37),#526,.T.);
#549=ADVANCED_FACE('',(#53),#527,.T.);
#550=ADVANCED_FACE('',(#54),#528,.T.);
#551=ADVANCED_FACE('',(#55),#529,.T.);
#552=ADVANCED_FACE('',(#56),#19,.F.);
#553=ADVANCED_FACE('',(#57),#530,.F.);
#554=ADVANCED_FACE('',(#58),#531,.F.);
#555=ADVANCED_FACE('',(#59),#20,.F.);
#556=ADVANCED_FACE('',(#60),#21,.F.);
#557=ADVANCED_FACE('',(#61),#22,.F.);
#558=ADVANCED_FACE('',(#62),#23,.F.);
#559=ADVANCED_FACE('',(#63),#532,.F.);
#560=ADVANCED_FACE('',(#64),#533,.F.);
#561=ADVANCED_FACE('',(#65),#24,.F.);
#562=ADVANCED_FACE('',(#66,#38),#534,.T.);
#563=ADVANCED_FACE('',(#67,#39),#535,.T.);
#564=ADVANCED_FACE('',(#68),#25,.F.);
#565=ADVANCED_FACE('',(#69),#26,.F.);
#566=ADVANCED_FACE('',(#70),#27,.F.);
#567=ADVANCED_FACE('',(#71),#28,.F.);
#568=CLOSED_SHELL('',(#536,#537,#538,#539,#540,#541,#542,#543,#544,#545,
#546,#547,#548,#549,#550,#551,#552,#553,#554,#555,#556,#557,#558,#559,#560,
#561,#562,#563,#564,#565,#566,#567));
#569=AXIS2_PLACEMENT_3D('',#800,#630,#631);
#570=AXIS2_PLACEMENT_3D('',#801,#632,#633);
#571=AXIS2_PLACEMENT_3D('',#804,#634,#635);
#572=AXIS2_PLACEMENT_3D('',#808,#637,#638);
#573=AXIS2_PLACEMENT_3D('',#814,#641,#642);
#574=AXIS2_PLACEMENT_3D('',#820,#645,#646);
#575=AXIS2_PLACEMENT_3D('',#824,#648,#649);
#576=AXIS2_PLACEMENT_3D('',#827,#651,#652);
#577=AXIS2_PLACEMENT_3D('',#832,#654,#655);
#578=AXIS2_PLACEMENT_3D('',#835,#657,#658);
#579=AXIS2_PLACEMENT_3D('',#836,#659,#660);
#580=AXIS2_PLACEMENT_3D('',#839,#661,#662);
#581=AXIS2_PLACEMENT_3D('',#842,#665,#666);
#582=AXIS2_PLACEMENT_3D('',#846,#669,#670);
#583=AXIS2_PLACEMENT_3D('',#854,#675,#676);
#584=AXIS2_PLACEMENT_3D('',#856,#677,#678);
#585=AXIS2_PLACEMENT_3D('',#858,#680,#681);
#586=AXIS2_PLACEMENT_3D('',#860,#682,#683);
#587=AXIS2_PLACEMENT_3D('',#862,#685,#686);
#588=AXIS2_PLACEMENT_3D('',#871,#691,#692);
#589=AXIS2_PLACEMENT_3D('',#873,#693,#694);
#590=AXIS2_PLACEMENT_3D('',#874,#695,#696);
#591=AXIS2_PLACEMENT_3D('',#883,#702,#703);
#592=AXIS2_PLACEMENT_3D('',#885,#705,#706);
#593=AXIS2_PLACEMENT_3D('',#887,#707,#708);
#594=AXIS2_PLACEMENT_3D('',#889,#709,#710);
#595=AXIS2_PLACEMENT_3D('',#891,#711,#712);
#596=AXIS2_PLACEMENT_3D('',#893,#713,#714);
#597=AXIS2_PLACEMENT_3D('',#894,#715,#716);
#598=AXIS2_PLACEMENT_3D('',#898,#719,#720);
#599=AXIS2_PLACEMENT_3D('',#902,#723,#724);
#600=AXIS2_PLACEMENT_3D('',#903,#725,#726);
#601=AXIS2_PLACEMENT_3D('',#909,#729,#730);
#602=AXIS2_PLACEMENT_3D('',#912,#732,#733);
#603=AXIS2_PLACEMENT_3D('',#913,#734,#735);
#604=AXIS2_PLACEMENT_3D('',#914,#736,#737);
#605=AXIS2_PLACEMENT_3D('',#916,#738,#739);
#606=AXIS2_PLACEMENT_3D('',#917,#740,#741);
#607=AXIS2_PLACEMENT_3D('',#919,#742,#743);
#608=AXIS2_PLACEMENT_3D('',#920,#744,#745);
#609=AXIS2_PLACEMENT_3D('',#923,#748,#749);
#610=AXIS2_PLACEMENT_3D('',#927,#752,#753);
#611=AXIS2_PLACEMENT_3D('',#929,#755,#756);
#612=AXIS2_PLACEMENT_3D('',#930,#757,#758);
#613=AXIS2_PLACEMENT_3D('',#932,#760,#761);
#614=AXIS2_PLACEMENT_3D('',#934,#763,#764);
#615=AXIS2_PLACEMENT_3D('',#937,#766,#767);
#616=AXIS2_PLACEMENT_3D('',#938,#768,#769);
#617=AXIS2_PLACEMENT_3D('',#939,#770,#771);
#618=AXIS2_PLACEMENT_3D('',#941,#772,#773);
#619=AXIS2_PLACEMENT_3D('',#942,#774,#775);
#620=AXIS2_PLACEMENT_3D('',#944,#777,#778);
#621=AXIS2_PLACEMENT_3D('',#946,#779,#780);
#622=AXIS2_PLACEMENT_3D('',#948,#781,#782);
#623=AXIS2_PLACEMENT_3D('',#949,#783,#784);
#624=AXIS2_PLACEMENT_3D('',#950,#785,#786);
#625=AXIS2_PLACEMENT_3D('',#952,#787,#788);
#626=AXIS2_PLACEMENT_3D('',#953,#789,#790);
#627=AXIS2_PLACEMENT_3D('',#955,#792,#793);
#628=AXIS2_PLACEMENT_3D('',#957,#795,#796);
#629=AXIS2_PLACEMENT_3D('',#959,#798,#799);
#630=DIRECTION('axis',(0.,0.,1.));
#631=DIRECTION('refdir',(1.,0.,0.));
#632=DIRECTION('center_axis',(-1.,-2.77555756156289E-16,0.));
#633=DIRECTION('ref_axis',(0.,0.,1.));
#634=DIRECTION('center_axis',(-1.,-2.77555756156289E-16,0.));
#635=DIRECTION('ref_axis',(0.,-0.707106781186566,0.707106781186529));
#636=DIRECTION('',(-2.77555756156289E-16,1.,0.));
#637=DIRECTION('center_axis',(-1.,-2.77555756156289E-16,0.));
#638=DIRECTION('ref_axis',(0.,0.707106781186539,0.707106781186556));
#639=DIRECTION('',(4.2492569367811E-31,-1.53095615656711E-15,-1.));
#640=DIRECTION('',(2.77555756156289E-16,-1.,2.40880897624242E-14));
#641=DIRECTION('center_axis',(1.,2.77555756156289E-16,0.));
#642=DIRECTION('ref_axis',(2.77555756156289E-16,-1.,0.));
#643=DIRECTION('',(-2.77555756156289E-16,1.,0.));
#644=DIRECTION('',(4.2492569367811E-31,-1.53095615656711E-15,-1.));
#645=DIRECTION('center_axis',(-1.,-2.77555756156289E-16,0.));
#646=DIRECTION('ref_axis',(0.,0.707106781186546,-0.707106781186549));
#647=DIRECTION('',(2.77555756156289E-16,-1.,1.53095615656711E-15));
#648=DIRECTION('center_axis',(-1.,-2.77555756156289E-16,0.));
#649=DIRECTION('ref_axis',(0.,-0.707106781186568,-0.707106781186527));
#650=DIRECTION('',(0.,0.,1.));
#651=DIRECTION('center_axis',(1.,2.77555756156289E-16,0.));
#652=DIRECTION('ref_axis',(2.77555756156289E-16,-1.,0.));
#653=DIRECTION('',(-2.77555756156289E-16,1.,-9.5999739676867E-14));
#654=DIRECTION('center_axis',(1.,2.77555756156289E-16,0.));
#655=DIRECTION('ref_axis',(-2.77555756156289E-16,1.,0.));
#656=DIRECTION('',(2.77555756156289E-16,-1.,8.53931028393914E-11));
#657=DIRECTION('center_axis',(1.,2.77555756156289E-16,0.));
#658=DIRECTION('ref_axis',(0.,-1.,0.));
#659=DIRECTION('center_axis',(1.,0.,0.));
#660=DIRECTION('ref_axis',(0.,-0.707106781186566,0.707106781186529));
#661=DIRECTION('center_axis',(-1.,1.3001851043404E-14,1.22464679915266E-16));
#662=DIRECTION('ref_axis',(0.,-0.707106781186566,0.707106781186529));
#663=DIRECTION('',(-1.,0.,0.));
#664=DIRECTION('',(1.,0.,0.));
#665=DIRECTION('center_axis',(0.,1.,0.));
#666=DIRECTION('ref_axis',(0.,0.,1.));
#667=DIRECTION('',(-1.,0.,-1.50538715203411E-15));
#668=DIRECTION('',(0.,0.,-1.));
#669=DIRECTION('center_axis',(0.,0.,1.));
#670=DIRECTION('ref_axis',(1.,0.,0.));
#671=DIRECTION('',(1.3001851043404E-14,1.,0.));
#672=DIRECTION('',(-1.,1.094797834813E-47,0.));
#673=DIRECTION('',(0.,-1.,0.));
#674=DIRECTION('',(-1.,0.,0.));
#675=DIRECTION('center_axis',(-1.,0.,0.));
#676=DIRECTION('ref_axis',(0.,0.707106781186539,0.707106781186556));
#677=DIRECTION('center_axis',(-1.,-3.586026972872E-16,-1.456403966789E-15));
#678=DIRECTION('ref_axis',(0.,0.707106781186539,0.707106781186556));
#679=DIRECTION('',(-1.,0.,0.));
#680=DIRECTION('center_axis',(1.,0.,1.50538715203411E-15));
#681=DIRECTION('ref_axis',(0.,-0.707106781186568,-0.707106781186527));
#682=DIRECTION('center_axis',(-1.,1.3001851043404E-14,1.22464679915266E-16));
#683=DIRECTION('ref_axis',(0.,-0.707106781186568,-0.707106781186527));
#684=DIRECTION('',(1.,0.,1.50538715203411E-15));
#685=DIRECTION('center_axis',(1.50538715203411E-15,-1.53095615656711E-15,
-1.));
#686=DIRECTION('ref_axis',(-2.30468172842365E-30,-1.,1.53095615656711E-15));
#687=DIRECTION('',(1.,0.,0.));
#688=DIRECTION('',(-3.58602697287198E-16,1.,-1.53095615656711E-15));
#689=DIRECTION('',(1.,0.,1.50538715203411E-15));
#690=DIRECTION('',(1.3001851043404E-14,1.,-1.53095615656709E-15));
#691=DIRECTION('center_axis',(-1.50538715203411E-15,1.53095615656711E-15,
1.));
#692=DIRECTION('ref_axis',(-1.,0.,0.));
#693=DIRECTION('center_axis',(-1.50538715203411E-15,1.53095615656711E-15,
1.));
#694=DIRECTION('ref_axis',(-1.,0.,0.));
#695=DIRECTION('center_axis',(0.,1.,-1.53095615656711E-15));
#696=DIRECTION('ref_axis',(1.50538715203411E-15,-1.53095615656711E-15,-1.));
#697=DIRECTION('',(-1.456403966789E-15,0.,1.));
#698=DIRECTION('',(-1.,0.,0.));
#699=DIRECTION('',(1.,0.,0.));
#700=DIRECTION('',(0.,1.53095615656711E-15,1.));
#701=DIRECTION('',(-1.,0.,0.));
#702=DIRECTION('center_axis',(-1.,-3.586026972872E-16,-1.456403966789E-15));
#703=DIRECTION('ref_axis',(-1.456403966789E-15,-5.22270390830313E-31,1.));
#704=DIRECTION('',(0.,0.,-1.));
#705=DIRECTION('center_axis',(1.,3.586026972872E-16,1.456403966789E-15));
#706=DIRECTION('ref_axis',(0.,0.707106781186546,-0.707106781186549));
#707=DIRECTION('center_axis',(-1.,-3.586026972872E-16,-1.456403966789E-15));
#708=DIRECTION('ref_axis',(-3.586026972872E-16,1.,0.));
#709=DIRECTION('center_axis',(-1.,-3.586026972872E-16,-1.456403966789E-15));
#710=DIRECTION('ref_axis',(-3.586026972872E-16,1.,0.));
#711=DIRECTION('center_axis',(-1.,-3.586026972872E-16,-1.456403966789E-15));
#712=DIRECTION('ref_axis',(-3.586026972872E-16,1.,0.));
#713=DIRECTION('center_axis',(-1.,-3.586026972872E-16,-1.456403966789E-15));
#714=DIRECTION('ref_axis',(-3.586026972872E-16,1.,0.));
#715=DIRECTION('center_axis',(0.,2.40880897624242E-14,1.));
#716=DIRECTION('ref_axis',(2.77555756156291E-16,-1.,2.40880897624242E-14));
#717=DIRECTION('',(2.77555756156291E-16,-1.,2.40880897624242E-14));
#718=DIRECTION('',(-1.,-2.77555756156289E-16,0.));
#719=DIRECTION('center_axis',(0.,0.,-1.));
#720=DIRECTION('ref_axis',(0.,1.,0.));
#721=DIRECTION('',(-1.,-2.77555756156289E-16,0.));
#722=DIRECTION('',(0.,1.,0.));
#723=DIRECTION('center_axis',(-1.,0.,0.));
#724=DIRECTION('ref_axis',(0.,0.707106781186546,-0.707106781186549));
#725=DIRECTION('center_axis',(1.,-1.3001851043404E-14,-1.22464679915266E-16));
#726=DIRECTION('ref_axis',(1.22464679915266E-16,-1.59226752633644E-30,1.));
#727=DIRECTION('',(1.22464679915266E-16,0.,1.));
#728=DIRECTION('',(-1.3001851043404E-14,-1.,9.5999739676867E-14));
#729=DIRECTION('center_axis',(-1.,1.3001851043404E-14,1.22464679915266E-16));
#730=DIRECTION('ref_axis',(0.,-1.,0.));
#731=DIRECTION('',(1.30018510433935E-14,1.,-8.53931028393914E-11));
#732=DIRECTION('center_axis',(-1.,1.3001851043404E-14,1.22464679915266E-16));
#733=DIRECTION('ref_axis',(1.3001851043404E-14,1.,0.));
#734=DIRECTION('center_axis',(0.,-1.,0.));
#735=DIRECTION('ref_axis',(0.,0.,-1.));
#736=DIRECTION('center_axis',(0.,0.,-1.));
#737=DIRECTION('ref_axis',(1.,0.,0.));
#738=DIRECTION('center_axis',(0.,0.,1.));
#739=DIRECTION('ref_axis',(-1.,0.,0.));
#740=DIRECTION('center_axis',(0.,0.,-1.));
#741=DIRECTION('ref_axis',(1.,0.,0.));
#742=DIRECTION('center_axis',(0.,0.,1.));
#743=DIRECTION('ref_axis',(-1.,0.,0.));
#744=DIRECTION('center_axis',(1.,0.,0.));
#745=DIRECTION('ref_axis',(0.,-1.,0.));
#746=DIRECTION('',(1.,0.,0.));
#747=DIRECTION('',(1.,0.,0.));
#748=DIRECTION('center_axis',(0.,8.53931028393914E-11,1.));
#749=DIRECTION('ref_axis',(-4.33725428740814E-21,-1.,8.53931028393914E-11));
#750=DIRECTION('',(-1.,0.,0.));
#751=DIRECTION('',(1.,-1.3001851043404E-14,-1.22464679915266E-16));
#752=DIRECTION('center_axis',(0.,-9.59997396768669E-14,-1.));
#753=DIRECTION('ref_axis',(4.33718651122799E-21,1.,-9.5999739676867E-14));
#754=DIRECTION('',(1.,-1.3001851043404E-14,-1.22464679915266E-16));
#755=DIRECTION('center_axis',(-1.,1.3001851043404E-14,1.22464679915266E-16));
#756=DIRECTION('ref_axis',(1.3001851043404E-14,1.,0.));
#757=DIRECTION('center_axis',(0.,0.,1.));
#758=DIRECTION('ref_axis',(-1.,0.,0.));
#759=DIRECTION('',(0.,0.,1.));
#760=DIRECTION('center_axis',(0.,0.,1.));
#761=DIRECTION('ref_axis',(-1.,0.,0.));
#762=DIRECTION('',(0.,0.,1.));
#763=DIRECTION('center_axis',(-1.,-3.586026972872E-16,-1.456403966789E-15));
#764=DIRECTION('ref_axis',(-3.586026972872E-16,1.,0.));
#765=DIRECTION('',(-1.,-3.586026972872E-16,-1.456403966789E-15));
#766=DIRECTION('center_axis',(-1.,-3.586026972872E-16,-1.456403966789E-15));
#767=DIRECTION('ref_axis',(-3.586026972872E-16,1.,0.));
#768=DIRECTION('center_axis',(-1.,-3.586026972872E-16,-1.456403966789E-15));
#769=DIRECTION('ref_axis',(-3.586026972872E-16,1.,0.));
#770=DIRECTION('center_axis',(-1.,-3.586026972872E-16,-1.456403966789E-15));
#771=DIRECTION('ref_axis',(-3.586026972872E-16,1.,0.));
#772=DIRECTION('center_axis',(-1.,-3.586026972872E-16,-1.456403966789E-15));
#773=DIRECTION('ref_axis',(-3.586026972872E-16,1.,0.));
#774=DIRECTION('center_axis',(-1.,-3.586026972872E-16,-1.456403966789E-15));
#775=DIRECTION('ref_axis',(-3.586026972872E-16,1.,0.));
#776=DIRECTION('',(-1.,-3.586026972872E-16,-1.456403966789E-15));
#777=DIRECTION('center_axis',(-1.,-2.77555756156289E-16,0.));
#778=DIRECTION('ref_axis',(0.,0.,-1.));
#779=DIRECTION('center_axis',(1.,2.77555756156289E-16,0.));
#780=DIRECTION('ref_axis',(2.77555756156289E-16,-1.,0.));
#781=DIRECTION('center_axis',(1.,2.77555756156289E-16,0.));
#782=DIRECTION('ref_axis',(-2.77555756156289E-16,1.,0.));
#783=DIRECTION('center_axis',(-1.,-2.77555756156289E-16,0.));
#784=DIRECTION('ref_axis',(0.,0.,-1.));
#785=DIRECTION('center_axis',(1.,2.77555756156289E-16,0.));
#786=DIRECTION('ref_axis',(2.77555756156289E-16,-1.,0.));
#787=DIRECTION('center_axis',(1.,2.77555756156289E-16,0.));
#788=DIRECTION('ref_axis',(-2.77555756156289E-16,1.,0.));
#789=DIRECTION('center_axis',(-1.,-3.586026972872E-16,-1.456403966789E-15));
#790=DIRECTION('ref_axis',(-3.586026972872E-16,1.,0.));
#791=DIRECTION('',(-1.,-3.586026972872E-16,-1.456403966789E-15));
#792=DIRECTION('center_axis',(1.,2.77555756156289E-16,0.));
#793=DIRECTION('ref_axis',(2.77555756156289E-16,-1.,0.));
#794=DIRECTION('',(1.,2.77555756156289E-16,0.));
#795=DIRECTION('center_axis',(-1.,-3.586026972872E-16,-1.456403966789E-15));
#796=DIRECTION('ref_axis',(-3.586026972872E-16,1.,0.));
#797=DIRECTION('',(-1.,-3.586026972872E-16,-1.456403966789E-15));
#798=DIRECTION('center_axis',(1.,2.77555756156289E-16,0.));
#799=DIRECTION('ref_axis',(2.77555756156289E-16,-1.,0.));
#800=CARTESIAN_POINT('',(0.,0.,0.));
#801=CARTESIAN_POINT('Origin',(-35.89846528735,-13.0000006556511,373.000005409122));
#802=CARTESIAN_POINT('',(-35.89846528735,-26.5608459295394,380.61614304289));
#803=CARTESIAN_POINT('',(-35.89846528735,-25.0608459295394,382.11614304289));
#804=CARTESIAN_POINT('Origin',(-35.89846528735,-25.0608459295394,380.61614304289));
#805=CARTESIAN_POINT('',(-35.89846528735,-1.54999999614596,382.11614304289));
#806=CARTESIAN_POINT('',(-35.89846528735,-20.0011733475681,382.11614304289));
#807=CARTESIAN_POINT('',(-35.89846528735,1.95000000385404,378.61614304289));
#808=CARTESIAN_POINT('Origin',(-35.89846528735,-1.54999999614596,378.61614304289));
#809=CARTESIAN_POINT('',(-35.89846528735,1.95000000385404,378.352889513656));
#810=CARTESIAN_POINT('',(-35.89846528735,1.95000000385404,377.658074226025));
#811=CARTESIAN_POINT('',(-35.89846528735,-0.999767880473993,378.352889513656));
#812=CARTESIAN_POINT('',(-35.89846528735,-5.52500032589846,378.352889513656));
#813=CARTESIAN_POINT('',(-35.89846528735,-0.999767880474008,372.552889513656));
#814=CARTESIAN_POINT('Origin',(-35.89846528735,-0.999767880474,375.452889513656));
#815=CARTESIAN_POINT('',(-35.89846528735,1.95000000385403,372.552889513656));
#816=CARTESIAN_POINT('',(-35.89846528735,-6.99988426806255,372.552889513656));
#817=CARTESIAN_POINT('',(-35.89846528735,1.95000000385402,370.500000000034));
#818=CARTESIAN_POINT('',(-35.89846528735,1.95000000385404,377.658074226025));
#819=CARTESIAN_POINT('',(-35.89846528735,-1.04999999614598,367.500000000034));
#820=CARTESIAN_POINT('Origin',(-35.89846528735,-1.04999999614598,370.500000000034));
#821=CARTESIAN_POINT('',(-35.89846528735,-25.0608459295394,367.500000000034));
#822=CARTESIAN_POINT('',(-35.89846528735,-11.5000004954633,367.500000000034));
#823=CARTESIAN_POINT('',(-35.89846528735,-26.5608459295394,369.000000000034));
#824=CARTESIAN_POINT('Origin',(-35.89846528735,-25.0608459295394,369.000000000034));
#825=CARTESIAN_POINT('',(-35.89846528735,-26.5608459295394,379.11614304289));
#826=CARTESIAN_POINT('',(-35.89846528735,-5.60026471006108,375.45078015801));
#827=CARTESIAN_POINT('Origin',(-35.89846528735,-8.50026471006108,375.45078015801));
#828=CARTESIAN_POINT('',(-35.89846528735,-18.814405801486,372.942907904834));
#829=CARTESIAN_POINT('',(-35.89846528735,-15.8538030408878,372.942907904834));
#830=CARTESIAN_POINT('',(-35.89846528735,-15.9072032285685,372.942907904834));
#831=CARTESIAN_POINT('',(-35.89846528735,-15.8538493043359,379.042907904483));
#832=CARTESIAN_POINT('Origin',(-35.89846528735,-15.8538030408877,375.992907904834));
#833=CARTESIAN_POINT('',(-35.89846528735,-18.8144058010232,379.042907904736));
#834=CARTESIAN_POINT('',(-35.89846528735,-14.4269249797355,379.042907904361));
#835=CARTESIAN_POINT('Origin',(-35.89846528735,-18.8144058012546,375.992907904769));
#836=CARTESIAN_POINT('Origin',(-28.43635695479,-25.0608459295394,380.61614304289));
#837=CARTESIAN_POINT('',(-28.349821052066,-26.5608459295393,380.61614304289));
#838=CARTESIAN_POINT('',(-28.349821052066,-25.0608459295394,382.11614304289));
#839=CARTESIAN_POINT('Origin',(-28.349821052066,-25.0608459295394,380.61614304289));
#840=CARTESIAN_POINT('',(-35.67271390735,-25.0608459295394,382.11614304289));
#841=CARTESIAN_POINT('',(-28.43635695479,-26.5608459295394,380.61614304289));
#842=CARTESIAN_POINT('Origin',(-34.37271390735,-26.5608459295394,374.50800915527));
#843=CARTESIAN_POINT('',(-28.349821052066,-26.5608459295393,369.000000000034));
#844=CARTESIAN_POINT('',(-33.3113571939565,-26.5608459295394,369.000000000034));
#845=CARTESIAN_POINT('',(-28.349821052066,-26.5608459295393,369.50000915527));
#846=CARTESIAN_POINT('Origin',(-22.50000000223,-3.301563337911,382.11614304289));
#847=CARTESIAN_POINT('',(-28.3498210520658,-12.25,382.11614304289));
#848=CARTESIAN_POINT('',(-28.3498210520658,-13.1507818030657,382.11614304289));
#849=CARTESIAN_POINT('',(-24.25000000223,-12.25,382.11614304289));
#850=CARTESIAN_POINT('',(-28.94275000223,-12.25,382.11614304289));
#851=CARTESIAN_POINT('',(-24.25000000223,-1.54999999614596,382.11614304289));
#852=CARTESIAN_POINT('',(-24.25000000223,-11.95,382.11614304289));
#853=CARTESIAN_POINT('',(-35.67271390735,-1.54999999614596,382.11614304289));
#854=CARTESIAN_POINT('Origin',(-22.8750000011105,-1.54999999614596,378.61614304289));
#855=CARTESIAN_POINT('',(-24.25000000223,1.95000000385403,378.61614304289));
#856=CARTESIAN_POINT('Origin',(-24.25000000223,-1.54999999614596,378.61614304289));
#857=CARTESIAN_POINT('',(-22.8750000011105,1.95000000385404,378.61614304289));
#858=CARTESIAN_POINT('Origin',(-33.3113571939565,-25.0608459295394,369.000000000034));
#859=CARTESIAN_POINT('',(-28.349821052066,-25.0608459295394,367.500000000034));
#860=CARTESIAN_POINT('Origin',(-28.349821052066,-25.0608459295394,369.000000000034));
#861=CARTESIAN_POINT('',(-33.3113571939565,-25.0608459295394,367.500000000034));
#862=CARTESIAN_POINT('Origin',(-32.250000480563,-10.0000003352756,367.500000000034));
#863=CARTESIAN_POINT('',(-24.25000000223,-1.04999999614598,367.500000000034));
#864=CARTESIAN_POINT('',(-23.2499999999909,-1.04999999614598,367.500000000034));
#865=CARTESIAN_POINT('',(-24.25000000223,-12.25,367.500000000034));
#866=CARTESIAN_POINT('',(-24.25000000223,-4.25000015646191,367.500000000034));
#867=CARTESIAN_POINT('',(-28.3498210520659,-12.25,367.500000000034));
#868=CARTESIAN_POINT('',(-27.3750002402815,-12.25,367.500000000034));
#869=CARTESIAN_POINT('',(-28.3498210520659,-16.5000003017481,367.500000000034));
#870=CARTESIAN_POINT('',(-30.8984652913293,-5.16184200663357,367.500000000034));
#871=CARTESIAN_POINT('Origin',(-32.5984652913293,-5.16184200663357,367.500000000034));
#872=CARTESIAN_POINT('',(-30.8984652913296,-22.0868654331503,367.500000000034));
#873=CARTESIAN_POINT('Origin',(-32.5984652913296,-22.0868654331503,367.500000000034));
#874=CARTESIAN_POINT('Origin',(-23.249999999991,1.95000000385404,382.316143042928));
#875=CARTESIAN_POINT('',(-24.25000000223,1.95000000385402,370.500000000034));
#876=CARTESIAN_POINT('',(-24.25000000223,1.95000000385403,373.259550827475));
#877=CARTESIAN_POINT('',(-23.2499999999909,1.95000000385402,370.500000000034));
#878=CARTESIAN_POINT('',(-33.57271390735,1.95000000385403,372.552889513656));
#879=CARTESIAN_POINT('',(-29.4613569536705,1.95000000385403,372.552889513656));
#880=CARTESIAN_POINT('',(-33.57271390735,1.95000000385404,378.352889513656));
#881=CARTESIAN_POINT('',(-33.57271390735,1.95000000385404,378.562107282195));
#882=CARTESIAN_POINT('',(-29.4613569536705,1.95000000385404,378.352889513656));
#883=CARTESIAN_POINT('Origin',(-24.25000000223,1.50000002235173,366.500005461276));
#884=CARTESIAN_POINT('',(-24.25000000223,-12.25,372.30005187988));
#885=CARTESIAN_POINT('Origin',(-24.25000000223,-1.04999999614598,370.500000000034));
#886=CARTESIAN_POINT('',(-24.25000000223,-5.79999989494682,371.149991704151));
#887=CARTESIAN_POINT('Origin',(-24.25000000223,-4.69999989494682,371.149991704151));
#888=CARTESIAN_POINT('',(-24.25000000223,-2.599767880474,375.452889513656));
#889=CARTESIAN_POINT('Origin',(-24.25000000223,-0.999767880473996,375.452889513656));
#890=CARTESIAN_POINT('',(-24.25000000223,-10.1002647100611,375.45078015801));
#891=CARTESIAN_POINT('Origin',(-24.25000000223,-8.50026471006108,375.45078015801));
#892=CARTESIAN_POINT('',(-24.25000000223,-5.79999989494682,379.749991511926));
#893=CARTESIAN_POINT('Origin',(-24.25000000223,-4.69999989494682,379.749991511926));
#894=CARTESIAN_POINT('Origin',(-35.67271390735,1.95000000385404,378.352889513656));
#895=CARTESIAN_POINT('',(-33.57271390735,-0.999767880473993,378.352889513656));
#896=CARTESIAN_POINT('',(-33.57271390735,-0.999767880473993,378.352889513656));
#897=CARTESIAN_POINT('',(-34.37271390735,-0.999767880473929,378.352889513656));
#898=CARTESIAN_POINT('Origin',(-35.67271390735,-0.999767880474008,372.552889513656));
#899=CARTESIAN_POINT('',(-33.57271390735,-0.999767880474008,372.552889513656));
#900=CARTESIAN_POINT('',(-34.37271390735,-0.999767880473999,372.552889513656));
#901=CARTESIAN_POINT('',(-33.57271390735,-0.999767880474008,372.552889513656));
#902=CARTESIAN_POINT('Origin',(-23.2499999999909,-1.04999999614598,370.500000000034));
#903=CARTESIAN_POINT('Origin',(-28.349821052066,-23.0000002682205,375.227005468726));
#904=CARTESIAN_POINT('',(-28.3498210520659,-12.25,373.688528674303));
#905=CARTESIAN_POINT('',(-28.3498210520659,-15.8538030408878,372.942907904834));
#906=CARTESIAN_POINT('',(-28.3498210520659,-18.814405801486,372.942907904834));
#907=CARTESIAN_POINT('',(-28.349821052066,-20.9072030348534,372.942907904834));
#908=CARTESIAN_POINT('',(-28.3498210520659,-18.8144058010232,379.042907904736));
#909=CARTESIAN_POINT('Origin',(-28.349821052066,-18.8144058012546,375.992907904769));
#910=CARTESIAN_POINT('',(-28.3498210520659,-15.8538493043359,379.042907904483));
#911=CARTESIAN_POINT('',(-28.349821052066,-19.4269247861153,379.042907904788));
#912=CARTESIAN_POINT('Origin',(-28.3498210520659,-15.8538030408877,375.992907904834));
#913=CARTESIAN_POINT('Origin',(-22.5,-12.25,369.));
#914=CARTESIAN_POINT('Origin',(-32.5984652913294,-13.6243537198919,372.000009154167));
#915=CARTESIAN_POINT('',(-30.8984652913296,-22.0868654331503,372.000009154167));
#916=CARTESIAN_POINT('Origin',(-32.5984652913296,-22.0868654331503,372.000009154167));
#917=CARTESIAN_POINT('Origin',(-32.5984652913294,-13.6243537198919,372.000009154167));
#918=CARTESIAN_POINT('',(-30.8984652913293,-5.16184200663357,372.000009154167));
#919=CARTESIAN_POINT('Origin',(-32.5984652913293,-5.16184200663357,372.000009154167));
#920=CARTESIAN_POINT('Origin',(-35.67271390735,-18.8144058012546,375.992907904769));
#921=CARTESIAN_POINT('',(-35.67271390735,-18.814405801486,372.942907904834));
#922=CARTESIAN_POINT('',(-35.67271390735,-18.8144058010232,379.042907904736));
#923=CARTESIAN_POINT('Origin',(-35.67271390735,-15.8538493043359,379.042907904483));
#924=CARTESIAN_POINT('',(-35.67271390735,-15.8538493043359,379.042907904483));
#925=CARTESIAN_POINT('',(-35.67271390735,-15.8538493043359,379.042907904483));
#926=CARTESIAN_POINT('',(-32.8498210520659,-15.8538030406273,379.042907904483));
#927=CARTESIAN_POINT('Origin',(-35.67271390735,-18.814405801486,372.942907904834));
#928=CARTESIAN_POINT('',(-32.8498210520659,-15.853803040888,372.942907904834));
#929=CARTESIAN_POINT('Origin',(-32.8498210520659,-15.8538030408877,375.992907904834));
#930=CARTESIAN_POINT('Origin',(-32.5984652913296,-22.0868654331503,364.946362946578));
#931=CARTESIAN_POINT('',(-30.8984652913296,-22.0868654331503,364.946362946578));
#932=CARTESIAN_POINT('Origin',(-32.5984652913293,-5.16184200663357,364.946359224166));
#933=CARTESIAN_POINT('',(-30.8984652913293,-5.16184200663357,364.946359224166));
#934=CARTESIAN_POINT('Origin',(-25.70000000223,-4.69999989494682,371.149991704151));
#935=CARTESIAN_POINT('',(-26.55000000223,-5.79999989494682,371.149991704151));
#936=CARTESIAN_POINT('',(-25.70000000223,-5.79999989494682,371.149991704151));
#937=CARTESIAN_POINT('Origin',(-26.55000000223,-4.69999989494682,371.149991704151));
#938=CARTESIAN_POINT('Origin',(-26.55000000223,-4.69999989494682,371.149991704151));
#939=CARTESIAN_POINT('Origin',(-26.55000000223,-4.69999989494682,379.749991511926));
#940=CARTESIAN_POINT('',(-26.55000000223,-5.79999989494682,379.749991511926));
#941=CARTESIAN_POINT('Origin',(-26.55000000223,-4.69999989494682,379.749991511926));
#942=CARTESIAN_POINT('Origin',(-25.75000000223,-4.69999989494682,379.749991511926));
#943=CARTESIAN_POINT('',(-25.75000000223,-5.79999989494682,379.749991511926));
#944=CARTESIAN_POINT('Origin',(-33.57271390735,-4.65826995459979,375.781121887306));
#945=CARTESIAN_POINT('',(-33.57271390735,-5.60026471006108,375.45078015801));
#946=CARTESIAN_POINT('Origin',(-33.57271390735,-8.50026471006108,375.45078015801));
#947=CARTESIAN_POINT('',(-33.57271390735,-10.1002647100611,375.45078015801));
#948=CARTESIAN_POINT('Origin',(-33.57271390735,-8.50026471006108,375.45078015801));
#949=CARTESIAN_POINT('Origin',(-33.57271390735,-4.65826995459979,375.781121887306));
#950=CARTESIAN_POINT('Origin',(-33.57271390735,-0.999767880473999,375.452889513656));
#951=CARTESIAN_POINT('',(-33.57271390735,-2.599767880474,375.452889513656));
#952=CARTESIAN_POINT('Origin',(-33.57271390735,-0.999767880473999,375.452889513656));
#953=CARTESIAN_POINT('Origin',(-32.74800000223,-8.50026471006108,375.45078015801));
#954=CARTESIAN_POINT('',(-32.74800000223,-10.1002647100611,375.45078015801));
#955=CARTESIAN_POINT('Origin',(-34.37271390735,-8.50026471006108,375.45078015801));
#956=CARTESIAN_POINT('',(-34.37271390735,-5.60026471006108,375.45078015801));
#957=CARTESIAN_POINT('Origin',(-32.74800000223,-0.999767880473999,375.452889513656));
#958=CARTESIAN_POINT('',(-32.74800000223,-2.599767880474,375.452889513656));
#959=CARTESIAN_POINT('Origin',(-34.37271390735,-0.999767880473999,375.452889513656));
#960=UNCERTAINTY_MEASURE_WITH_UNIT(LENGTH_MEASURE(0.01),#964,
'DISTANCE_ACCURACY_VALUE',
'Maximum model space distance between geometric entities at asserted c
onnectivities');
#961=UNCERTAINTY_MEASURE_WITH_UNIT(LENGTH_MEASURE(0.01),#964,
'DISTANCE_ACCURACY_VALUE',
'Maximum model space distance between geometric entities at asserted c
onnectivities');
#962=(
GEOMETRIC_REPRESENTATION_CONTEXT(3)
GLOBAL_UNCERTAINTY_ASSIGNED_CONTEXT((#960))
GLOBAL_UNIT_ASSIGNED_CONTEXT((#964,#965,#966))
REPRESENTATION_CONTEXT('','3D')
);
#963=(
GEOMETRIC_REPRESENTATION_CONTEXT(3)
GLOBAL_UNCERTAINTY_ASSIGNED_CONTEXT((#961))
GLOBAL_UNIT_ASSIGNED_CONTEXT((#964,#965,#966))
REPRESENTATION_CONTEXT('','3D')
);
#964=(
LENGTH_UNIT()
NAMED_UNIT(*)
SI_UNIT(.MILLI.,.METRE.)
);
#965=(
NAMED_UNIT(*)
PLANE_ANGLE_UNIT()
SI_UNIT($,.RADIAN.)
);
#966=(
NAMED_UNIT(*)
SI_UNIT($,.STERADIAN.)
SOLID_ANGLE_UNIT()
);
#967=SHAPE_DEFINITION_REPRESENTATION(#968,#969);
#968=PRODUCT_DEFINITION_SHAPE('',$,#971);
#969=SHAPE_REPRESENTATION('',(#569),#962);
#970=PRODUCT_DEFINITION_CONTEXT('part definition',#975,'design');
#971=PRODUCT_DEFINITION('Body','k1 microprobe mount zero y-offset v8',#972,
#970);
#972=PRODUCT_DEFINITION_FORMATION('',$,#977);
#973=PRODUCT_RELATED_PRODUCT_CATEGORY(
'k1 microprobe mount zero y-offset v8',
'k1 microprobe mount zero y-offset v8',(#977));
#974=APPLICATION_PROTOCOL_DEFINITION('international standard',
'automotive_design',2009,#975);
#975=APPLICATION_CONTEXT(
'Core Data for Automotive Mechanical Design Process');
#976=PRODUCT_CONTEXT('part definition',#975,'mechanical');
#977=PRODUCT('Body','k1 microprobe mount zero y-offset v8',
'FreeCAD Model',(#976));
#978=PRESENTATION_STYLE_ASSIGNMENT((#984));
#979=PRESENTATION_STYLE_ASSIGNMENT((#985));
#980=PRESENTATION_STYLE_ASSIGNMENT((#986));
#981=PRESENTATION_STYLE_ASSIGNMENT((#987));
#982=PRESENTATION_STYLE_ASSIGNMENT((#988));
#983=PRESENTATION_STYLE_ASSIGNMENT((#989));
#984=SURFACE_STYLE_USAGE(.BOTH.,#990);
#985=SURFACE_STYLE_USAGE(.BOTH.,#991);
#986=SURFACE_STYLE_USAGE(.BOTH.,#992);
#987=SURFACE_STYLE_USAGE(.BOTH.,#993);
#988=SURFACE_STYLE_USAGE(.BOTH.,#994);
#989=SURFACE_STYLE_USAGE(.BOTH.,#995);
#990=SURFACE_SIDE_STYLE('',(#996));
#991=SURFACE_SIDE_STYLE('',(#997));
#992=SURFACE_SIDE_STYLE('',(#998));
#993=SURFACE_SIDE_STYLE('',(#999));
#994=SURFACE_SIDE_STYLE('',(#1000));
#995=SURFACE_SIDE_STYLE('',(#1001));
#996=SURFACE_STYLE_FILL_AREA(#1002);
#997=SURFACE_STYLE_FILL_AREA(#1003);
#998=SURFACE_STYLE_FILL_AREA(#1004);
#999=SURFACE_STYLE_FILL_AREA(#1005);
#1000=SURFACE_STYLE_FILL_AREA(#1006);
#1001=SURFACE_STYLE_FILL_AREA(#1007);
#1002=FILL_AREA_STYLE('Steel - Satin',(#1008));
#1003=FILL_AREA_STYLE('Opaque(64,64,64)',(#1009));
#1004=FILL_AREA_STYLE('Opaque(215,208,192)',(#1010));
#1005=FILL_AREA_STYLE('Opaque(247,66,66)',(#1011));
#1006=FILL_AREA_STYLE('Opaque(229,234,237)',(#1012));
#1007=FILL_AREA_STYLE('Opaque(186,186,186)',(#1013));
#1008=FILL_AREA_STYLE_COLOUR('Steel - Satin',#1014);
#1009=FILL_AREA_STYLE_COLOUR('Opaque(64,64,64)',#1015);
#1010=FILL_AREA_STYLE_COLOUR('Opaque(215,208,192)',#1016);
#1011=FILL_AREA_STYLE_COLOUR('Opaque(247,66,66)',#1017);
#1012=FILL_AREA_STYLE_COLOUR('Opaque(229,234,237)',#1018);
#1013=FILL_AREA_STYLE_COLOUR('Opaque(186,186,186)',#1019);
#1014=COLOUR_RGB('Steel - Satin',0.627450980392157,0.627450980392157,0.627450980392157);
#1015=COLOUR_RGB('Opaque(64,64,64)',0.250980392156863,0.250980392156863,
0.250980392156863);
#1016=COLOUR_RGB('Opaque(215,208,192)',0.843137254901961,0.815686274509804,
0.752941176470588);
#1017=COLOUR_RGB('Opaque(247,66,66)',0.968627450980392,0.258823529411765,
0.258823529411765);
#1018=COLOUR_RGB('Opaque(229,234,237)',0.898039215686275,0.917647058823529,
0.929411764705882);
#1019=COLOUR_RGB('Opaque(186,186,186)',0.729411764705882,0.729411764705882,
0.729411764705882);
ENDSEC;
END-ISO-10303-21;
